<?xml version="1.0" encoding="UTF-8"?>
<svg id="uuid-45941686-bbb2-4761-aeb3-54e62f0a9606" data-name="ThemeCore Service Mark" xmlns="http://www.w3.org/2000/svg" viewBox="0 0 1024.5 1025.25">
  <path d="m606.88523,782.76252c-2.17522,3.76759-5.72765,6.74677-10.21776,8.11288-76.59762,23.26212-160.29062,13.64665-229.61729-26.37912-115.73509-66.81969-170.89439-203.03075-134.13326-331.23811,2.68512-9.43065,12.53554-14.88425,21.96456-12.17793,9.42954,2.70374,14.88085,12.53646,12.17796,21.96456-32.25403,112.50386,16.16657,232.04088,117.75064,290.69046,61.74454,35.64823,133.31788,43.87048,201.53551,23.14984,9.38548-2.84875,19.30294,2.45054,22.15553,11.83438,1.48594,4.89631.75447,9.93748-1.61588,14.04305Z"/>
  <path d="m763.7451,658.20423l-.94522,1.63717c-4.90414,8.49422-15.76682,11.40486-24.26032,6.50113-8.49423-4.90414-11.40488-15.76682-6.50074-24.26104l.94522-1.63717c70.29113-121.74781,28.45809-277.96854-93.2559-348.24014-18.83939-10.87693-38.70968-19.22443-59.06091-24.81263-9.45836-2.59712-15.02206-12.3686-12.42495-21.82695,2.60295-9.46846,12.37034-15.02007,21.82581-12.42462,23.2741,6.38792,45.95647,15.9122,67.41952,28.3039,138.67644,80.06488,186.34188,258.0501,106.25748,396.76035Z"/>
  <path d="m441.98786,263.00118c-2.10308,3.64265-5.49903,6.55427-9.80664,7.97953-53.26696,17.59734-98.14516,51.24224-129.78416,97.30003-5.55084,8.08329-16.60973,10.13633-24.69354,4.58135-8.08452-5.5554-10.11484-16.60695-4.58095-24.69425,36.07004-52.50842,87.21905-90.86386,147.91816-110.91536,9.31202-3.07507,19.35696,1.98006,22.43421,11.29332,1.65229,5.00679.95707,10.222-1.48708,14.45539Z"/>
  <path d="m635.45903,584.11223c-39.22352,67.93713-126.40858,91.29826-194.34578,52.0747-67.9372-39.22356-91.2984-126.4086-52.07488-194.34573,39.22352-67.93713,126.40858-91.29826,194.34578-52.0747,67.9372,39.22356,91.2984,126.4086,52.07488,194.34573Zm-215.66032-124.51155c-29.43151,50.97686-11.9032,116.39326,39.07443,145.82521,50.97763,29.43195,116.39405,11.90371,145.82556-39.07316,29.43192-50.97759,11.90362-116.39399-39.07401-145.82594-50.97763-29.43195-116.39405-11.90371-145.82597,39.07388Z"/>
  <g>
    <path d="m371.03734,924.8332c-4.31708,7.4774-13.56436,10.88064-21.84814,7.63671-21.33683-8.35745-42.18092-18.38223-61.94903-29.79535-51.30044-29.61833-95.46622-68.21866-131.27021-114.72758-5.98798-7.77577-4.52873-18.92907,3.23777-24.90602,7.77357-5.9825,18.92311-4.53505,24.90561,3.23852,32.96022,42.81032,73.63116,78.35106,120.8867,105.63405,18.23132,10.52585,37.45508,19.77304,57.14297,27.48083,9.13273,3.57808,13.6378,13.88228,10.06087,23.0147-.33415.84894-.72459,1.65863-1.16655,2.42414Z"/>
    <path d="m901.96007,738.00268c-58.92597,102.06277-153.93007,175.90847-267.50506,207.9383-9.44123,2.66346-19.25284-2.83085-21.913-12.27113-2.66855-9.43743,2.82411-19.25286,12.27112-21.91298,104.61781-29.50096,192.11753-97.51686,246.38661-191.51367,54.63141-94.62438,69.69044-204.88087,42.39429-310.45572-2.45173-9.48942,3.24767-19.18261,12.75015-21.64027,9.49523-2.45511,19.18259,3.2544,21.6406,12.7513,29.63681,114.64291,13.29237,234.36401-46.0247,337.10418Z"/>
    <path d="m839.05865,221.94592c-.81388,1.40968-1.83693,2.73135-3.06882,3.91607-7.06602,6.80505-18.30836,6.59239-25.11177-.46981-26.79306-27.81817-57.54364-51.83376-91.39777-71.37945-197.91431-114.26588-451.90113-46.19213-566.18275,151.74944-54.97456,95.21873-69.85285,206.18619-41.89679,312.45596,2.50129,9.4853-3.16975,19.19775-12.65554,21.69489-9.48796,2.49589-19.19992-3.17101-21.69491-12.65555-30.35535-115.38804-14.20083-235.87259,45.4869-339.25478C246.61042,73.10156,522.36558-.80621,737.24017,123.2517c36.7385,21.21098,70.11818,47.28564,99.21986,77.4978,5.61992,5.83486,6.45454,14.51775,2.59861,21.19642Z"/>
  </g>
  <path d="m140.42741,675.89701c-15.3715-8.87474-35.02707-3.60806-43.90138,11.76271-8.87473,15.37149-3.60803,35.02705,11.76347,43.90179,15.37078,8.87432,35.02635,3.60764,43.90108-11.76385s3.60761-35.02633-11.76317-43.90065Z"/>
  <path d="m575.91167,951.28283c-2.72017,4.71147-7.561,8.11768-13.38288,8.77845-45.7235,5.19715-91.80071,3.34675-136.94317-5.49962-9.62547-1.88573-15.8979-11.21519-14.01093-20.84282,1.87942-9.62621,11.21735-15.89663,20.84281-14.0109,41.56557,8.14375,83.99411,9.84612,126.1014,5.06181,9.74544-1.10895,18.54175,5.8954,19.65071,15.64084.44602,3.92231-.42379,7.69539-2.25794,10.87224Z"/>
  <circle cx="681.0595" cy="727.11807" r="34.11466" transform="translate(-289.17297 953.37386) rotate(-60)"/>
  <circle cx="510.39498" cy="512.76146" r="34.11466" transform="translate(-188.86697 698.39574) rotate(-60)"/>
  <circle cx="884.51569" cy="306.25076" r="34.11466" transform="translate(177.03692 919.13844) rotate(-60)"/>
</svg>