<?xml version="1.0" encoding="UTF-8"?>
<svg id="uuid-67db4198-50e3-4248-945f-c1e7d8038e61" data-name="Icon Colored" xmlns="http://www.w3.org/2000/svg" viewBox="0 0 1024.5 1025.25">
  <rect x=".25" width="1024" height="1024" style="fill: #003888;"/>
  <g>
    <g>
      <path d="m512.5166,804.83105c-51.42383,0-101.98486-13.49805-146.21631-39.03613-116.33447-67.16504-171.77686-204.0791-134.8252-332.9502,2.33936-8.21729,9.94727-13.95801,18.49902-13.95801,1.79297,0,3.58301.25293,5.3208.75146,10.20801,2.92725,16.13232,13.61279,13.20654,23.81982-32.06445,111.8418,16.07178,230.67383,117.05859,288.97852,38.68994,22.33789,82.30664,34.14453,126.13477,34.14453,24.92725,0,49.89697-3.74512,74.21533-11.13184,1.8252-.55371,3.70898-.83496,5.59961-.83496,8.53613,0,15.94141,5.49316,18.42676,13.66895,1.54199,5.08105.90332,10.63086-1.75293,15.22949-2.4502,4.24609-6.38574,7.37012-11.08008,8.79785-27.35645,8.30762-55.81543,12.52051-84.58691,12.52051Z" style="fill: #fff;"/>
      <path d="m249.97388,420.38663c1.62244,0,3.27087.22382,4.90759.69357,9.42953,2.70377,14.88089,12.53647,12.17795,21.9646-32.25401,112.50385,16.1666,232.04089,117.75064,290.69043,39.43073,22.76538,82.87186,34.34607,126.88565,34.34607,24.90732,0,49.99673-3.70801,74.64987-11.19623,1.71912-.52179,3.45636-.7702,5.16449-.7702,7.61737-.00018,14.66089,4.93958,16.99103,12.60461,1.48596,4.8963.75446,9.9375-1.61584,14.04303-2.17523,3.76758-5.72766,6.74677-10.21777,8.11292-27.46649,8.34137-55.84808,12.45557-84.14972,12.45557-50.625,0-101.00018-13.16144-145.46759-38.83472-115.73511-66.8197-170.89441-203.03076-134.13322-331.23807,2.21902-7.7937,9.33266-12.87158,17.05693-12.87158m0-3c-9.21877,0-17.4193,6.18881-19.94229,15.05005-37.14,129.52853,18.58665,267.14694,135.51859,334.65762,44.45978,25.66882,95.28036,39.23669,146.96759,39.23669,28.91852,0,57.52386-4.23419,85.02148-12.58502,5.06085-1.53979,9.30219-4.90765,11.94403-9.48346,2.86169-4.95667,3.55005-10.93939,1.88855-16.41425-2.67914-8.81305-10.66064-14.7334-19.86145-14.7334-2.03864,0-4.06946.30261-6.03607.89954-24.1767,7.34351-48.99927,11.06689-73.77859,11.06689-43.56537,0-86.92307-11.73767-125.38565-33.94415-100.38901-57.95959-148.24077-176.08746-116.36682-287.26559,3.15424-11.00229-3.23154-22.52011-14.23488-25.67511-1.87189-.53729-3.80153-.80981-5.73448-.80981h0Z"/>
    </g>
    <g>
      <path d="m747.40234,670.22461c-3.3623,0-6.68555-.89355-9.6123-2.58301-9.19727-5.30957-12.36035-17.1123-7.0498-26.31055l.94531-1.63672c69.87793-121.0332,28.29004-276.3335-92.70703-346.19141-18.72656-10.81152-38.47949-19.10986-58.70898-24.66504-10.24023-2.81201-16.28516-13.43066-13.47363-23.67041,2.29297-8.34082,9.9248-14.16602,18.55762-14.16602,1.71973,0,3.43945.23291,5.1123.69238,23.39062,6.41943,46.19238,15.99219,67.77148,28.45117,139.3916,80.47754,187.30469,259.38232,106.80664,398.80908l-.94531,1.6377c-3.43066,5.94141-9.82812,9.63281-16.69629,9.63281Z" style="fill: #fff;"/>
      <path d="m585.35406,232.5016c1.55719-.00005,3.13965.20625,4.71405.63841,23.27411,6.38788,45.95648,15.91219,67.41949,28.30386,138.67645,80.06488,186.34192,258.05008,106.25751,396.76035l-.94525,1.63715c-3.28925,5.69727-9.26038,8.88306-15.39795,8.88306-3.01324,0-6.06561-.76721-8.86237-2.3819-8.4942-4.90411-11.40485-15.76685-6.50073-24.26105l.94525-1.63715c70.29102-121.7478,28.45807-277.96851-93.25592-348.24014-18.83942-10.87692-38.70966-19.22443-59.06091-24.81268-9.45837-2.59708-15.02203-12.36856-12.42493-21.82687,2.16956-7.89195,9.31683-13.06281,17.11176-13.06303m0-3.00003h-.00012c-9.30701.00032-17.53314,6.27869-20.00433,15.26781-1.46851,5.34807-.76617,10.94682,1.97717,15.76587,2.74323,4.81863,7.19885,8.28094,12.54614,9.74921,20.10547,5.52075,39.73901,13.76974,58.35522,24.51779,120.28064,69.44415,161.62244,223.82562,92.15784,344.14209l-.94525,1.63715c-5.72363,9.91364-2.31482,22.63544,7.59882,28.35907,3.1543,1.82129,6.73761,2.78387,10.36237,2.78387,7.40277,0,14.29846-3.97852,17.99603-10.38306l.94525-1.63715c19.77551-34.25226,32.24554-71.39124,37.06354-110.38519,4.65234-37.65302,2.00879-75.42377-7.85718-112.26309-9.86603-36.83948-26.45239-70.87256-49.29834-101.15387-23.65979-31.35992-53.01953-57.28543-87.26361-77.05624-21.69037-12.52299-44.61115-22.145-68.12549-28.59882-1.80176-.49463-3.65503-.74544-5.50806-.74544h0Z"/>
    </g>
    <g>
      <path d="m287.74365,377.48584c-3.89941,0-7.66504-1.17139-10.88965-3.38721-8.73535-6.00342-10.96484-18.01562-4.96924-26.77783,36.25928-52.78467,87.67334-91.3374,148.68506-111.49268,1.96191-.64795,3.99463-.97607,6.04248-.97607,8.32422,0,15.67334,5.31396,18.28711,13.22314,1.71924,5.20996,1.13135,10.92334-1.61279,15.67578-2.36279,4.09375-6.13965,7.16699-10.63428,8.65381-52.95361,17.49414-97.56738,50.94092-129.01904,96.7251-3.59277,5.23193-9.53271,8.35596-15.88965,8.35596Z" style="fill: #fff;"/>
      <path d="m426.61237,236.35202c7.45377-.00012,14.39612,4.72906,16.86258,12.19379,1.65228,5.00679.95706,10.22198-1.48709,14.45538-2.10309,3.64264-5.49902,6.55426-9.80664,7.97952-53.26697,17.59735-98.14514,51.24222-129.78415,97.30002-3.44116,5.01111-8.99957,7.7048-14.65329,7.7048-3.46616,0-6.96786-1.01218-10.04025-3.12344-8.08453-5.55539-10.11484-16.60696-4.58096-24.69424,36.07007-52.50842,87.21906-90.86386,147.91818-110.91537,1.8483-.61035,3.7258-.90042,5.57162-.90045m.00037-2.99998h-.00006c-2.20816.00003-4.39935.35388-6.51263,1.05174-61.32547,20.25841-113.00443,59.00995-149.45026,112.06543-6.465,9.448-4.06149,22.39496,5.35471,28.86542,3.47577,2.38843,7.53516,3.65091,11.73932,3.65091,6.8512,0,13.25357-3.36694,17.12631-9.00656,31.26367-45.51147,75.61264-78.75961,128.25214-96.14966,4.84552-1.60324,8.91626-4.91589,11.46368-9.32812,2.95743-5.12241,3.59085-11.28062,1.73788-16.89554-2.81708-8.52594-10.73822-14.25362-19.71109-14.25362h0Z"/>
    </g>
    <g>
      <path d="m512.00928,656.71875c-25.07764,0-49.85254-6.65039-71.646-19.2334-68.65479-39.6377-92.26172-127.73975-52.62354-196.39404,25.58936-44.32324,73.39062-71.85693,124.74902-71.85693,25.07764,0,49.85205,6.65088,71.64502,19.2334,68.6543,39.6377,92.26172,127.74023,52.62402,196.39453-25.58984,44.32324-73.39062,71.85645-124.74854,71.85645Zm.41846-248.97363c-37.60059,0-72.59619,20.15723-91.33008,52.60547-14.03369,24.30762-17.75098,52.66699-10.46631,79.85352,7.28467,27.1875,24.68359,49.88867,48.9917,63.92285,15.9541,9.21094,34.09033,14.08008,52.44775,14.08008,37.6001.00098,72.59521-20.15527,91.32861-52.60449,14.03418-24.30762,17.75195-52.66748,10.4668-79.854-7.28418-27.18701-24.68359-49.88818-48.99121-63.92285-15.95508-9.21143-34.09082-14.08057-52.44727-14.08057Z" style="fill: #fff;"/>
      <path d="m512.48859,370.73422c24.12329-.00183,48.54565,6.12854,70.89557,19.03232,67.93719,39.22348,91.2984,126.40857,52.07489,194.3457-26.31976,45.58722-74.24591,71.10699-123.45026,71.10699-24.12326,0-48.54556-6.12854-70.89551-19.03229-67.93723-39.22357-91.2984-126.40863-52.07492-194.34576,26.31982-45.58722,74.24591-71.10324,123.45023-71.10696m-.41797,248.97311c36.92346,0,72.87714-19.14496,92.62805-53.35461,29.43195-50.97754,11.90363-116.39395-39.07397-145.82593-16.76746-9.68073-35.09998-14.28143-53.19739-14.28143-36.92346,0-72.87738,19.1452-92.6286,53.35532-29.43155,50.97687-11.9032,116.39328,39.0744,145.82523,16.76749,9.68066,35.10016,14.28143,53.19751,14.28143m.42889-251.97311h-.01117c-25.09396.00192-49.91507,6.51886-71.77994,18.84641-22.53094,12.70309-41.2966,31.29321-54.26813,53.76056-40.0513,69.37094-16.198,158.39252,53.173,198.44385,22.02124,12.71393,47.05524,19.4342,72.39554,19.4342,25.09323,0,49.91446-6.51648,71.78024-18.84503,22.53058-12.70343,41.29614-31.29395,54.26813-53.76196,19.37085-33.55139,24.50177-72.69385,14.44745-110.21692-10.05426-37.52304-34.06903-68.85593-67.62048-88.2269-22.02124-12.71393-47.05145-19.4342-72.38464-19.4342h0Zm-.42889,248.97311c-18.09366,0-35.97034-4.79944-51.69751-13.87958-23.96103-13.83386-41.11179-36.21185-48.29285-63.0116-7.18103-26.79974-3.51724-54.75473,10.31656-78.71548,9.26486-16.0473,22.6644-29.32346,38.75006-38.39325,15.61948-8.80695,33.35199-13.46204,51.28043-13.46204,18.09363,0,35.97034,4.79944,51.69739,13.87949,49.54449,28.60455,66.58044,92.18347,37.97589,141.72784-9.26477,16.04706-22.66418,29.323-38.74969,38.39264-15.61945,8.80695-33.35187,13.46198-51.28027,13.46198h0Z"/>
    </g>
    <g>
      <g>
        <path d="m355.66113,935.19727c-2.40234,0-4.76367-.44727-7.01904-1.33105-21.41162-8.38672-42.32275-18.44434-62.15186-29.89258-51.4707-29.71582-95.78369-68.44531-131.70898-115.11133-3.13965-4.07715-4.50244-9.13379-3.83789-14.2373.66455-5.10059,3.27441-9.63672,7.34912-12.77246,3.40039-2.61719,7.45947-4,11.73828-4,6.03125,0,11.59717,2.73828,15.27148,7.51172,32.8418,42.65723,73.36621,78.06836,120.44775,105.25,18.17627,10.49414,37.3335,19.70703,56.93994,27.38379,9.88867,3.87402,14.7832,15.07031,10.91064,24.95801-.36084.91602-.78564,1.79883-1.26465,2.62695-3.42334,5.93066-9.81299,9.61426-16.6748,9.61426Z" style="fill: #fff;"/>
        <path d="m170.03076,759.35272c5.32225-.00006,10.58525,2.38239,14.08261,6.92676,32.96022,42.8103,73.63113,78.35107,120.88669,105.63403,18.23132,10.52588,37.45505,19.77307,57.14301,27.48083,9.13269,3.57812,13.63776,13.88232,10.06082,23.01471-.33414.84894-.72458,1.65863-1.16656,2.42413-3.20853,5.55737-9.14062,8.86438-15.37628,8.86438-2.15433,0-4.34479-.39465-6.47183-1.22766-21.33682-8.35748-42.18094-18.3822-61.94904-29.79535-51.30045-29.61835-95.46623-68.21863-131.27019-114.7276-5.98801-7.77576-4.52876-18.92908,3.23778-24.90601,3.22917-2.48517,7.04108-3.68817,10.823-3.68823m.00011-3c-4.61314,0-8.98842,1.49066-12.65279,4.31079-4.39235,3.38025-7.20581,8.26996-7.92203,13.76837-.71654,5.50092.75267,10.95068,4.13704,15.34546,36.0446,46.82159,80.50539,85.67993,132.14708,115.4953,19.89542,11.48663,40.87463,21.57697,62.35489,29.99066,2.43039.95172,4.97589,1.43427,7.56598,1.43427,7.396,0,14.28336-3.97137,17.97437-10.36438.51703-.89551.97461-1.84613,1.36005-2.82544,4.17624-10.66235-1.09918-22.73059-11.758-26.90668-19.5358-7.64819-38.62479-16.82831-56.7374-27.28564-46.91138-27.08423-87.28844-62.36627-120.00961-104.86609-3.95982-5.14532-9.95926-8.09662-16.45958-8.09662h0Z"/>
      </g>
      <g>
        <path d="m629.62305,948.11328c-8.57812,0-16.19629-5.77246-18.52441-14.03613-1.40039-4.94922-.78711-10.14844,1.72656-14.6377,2.51367-4.49023,6.62695-7.73145,11.58203-9.12695,104.23438-29.39258,191.41992-97.16016,245.49414-190.81934,54.43555-94.28613,69.43652-204.1416,42.24023-309.33008-2.65625-10.28174,3.54688-20.80908,13.82617-23.46826,1.58496-.40967,3.21094-.61719,4.83301-.61719,8.77148,0,16.43457,5.93994,18.63574,14.44482,29.73633,115.0293,13.33691,235.14844-46.17773,338.23047-59.12109,102.40039-154.43945,176.49414-268.39648,208.63184-1.71289.4834-3.47559.72852-5.23926.72852Z" style="fill: #fff;"/>
        <path d="m930.80054,387.57764c7.90198-.00037,15.11188,5.31427,17.1842,13.32086,29.63684,114.64288,13.29242,234.36401-46.02466,337.10419-58.92596,102.06274-153.93005,175.90839-267.50507,207.93823-1.61176.45471-3.23602.67181-4.83191.67181-7.75256,0-14.87506-5.1142-17.08112-12.94287-2.66852-9.43744,2.8241-19.25281,12.27112-21.91296,104.61786-29.50098,192.11755-97.51685,246.3866-191.51373,54.63141-94.62427,69.69049-204.88086,42.39429-310.45569-2.45172-9.48944,3.24774-19.18262,12.75018-21.64029,1.48999-.38525,2.9856-.56946,4.45636-.56955m.00085-3h-.00012c-1.74933.00009-3.50159.22385-5.20801.66507-11.0813,2.866-17.76709,14.21341-14.90387,25.29523,27.09747,104.80624,12.15033,214.26218-42.08777,308.20523-53.87738,93.31842-140.74561,160.83997-244.60278,190.12634-5.33936,1.50342-9.77277,4.99713-12.48242,9.83704-2.70917,4.83911-3.37018,10.44312-1.86127,15.77966,2.5094,8.90521,10.72076,15.12653,19.96796,15.12653,1.90155,0,3.80127-.26392,5.64642-.78448,114.33557-32.24432,209.97089-106.58423,269.28864-209.32556,59.71252-103.42511,76.16656-223.94373,46.33105-339.35504-2.3728-9.16779-10.63312-15.57001-20.08783-15.57001h0Z"/>
      </g>
      <g>
        <path d="m94.21338,642.00195c-8.73486,0-16.38916-5.90625-18.61377-14.3623-30.45703-115.77393-14.24902-236.65869,45.63867-340.38721,40.32227-69.84033,98.646-127.62549,168.6665-167.10791,67.96777-38.3252,145.12354-58.58301,223.12598-58.58301,78.73975,0,156.52979,20.88281,224.95947,60.39111,36.85449,21.27783,70.34766,47.43896,99.5498,77.75635,5.92383,6.14941,7.08203,15.60205,2.81738,22.98682-.90039,1.56055-2.01953,2.98926-3.32715,4.24707-3.60742,3.47412-8.35254,5.3877-13.35938,5.3877-5.28223,0-10.20898-2.09473-13.87305-5.89795-26.69531-27.71631-57.33496-51.64502-91.06738-71.12109-62.59082-36.13672-133.74219-55.23779-205.76123-55.23779-71.35742,0-141.93408,18.52881-204.10107,53.58301-64.03955,36.11084-117.38574,88.96729-154.27197,152.85547-54.7749,94.87305-69.6001,205.43701-41.74463,311.32373,1.31152,4.97363.60547,10.16113-1.98779,14.60645-2.59277,4.44336-6.76074,7.61133-11.73682,8.9209-1.61035.42383-3.26318.63867-4.91357.63867Z" style="fill: #fff;"/>
        <path d="m513.03064,63.06167c76.28528-.00248,153.53333,19.38506,224.20959,60.18999,36.7384,21.211,70.1181,47.28566,99.21979,77.49777,5.62,5.8349,6.45453,14.51778,2.59863,21.19646-.8139,1.40967-1.83685,2.73132-3.06885,3.91611-3.44592,3.3186-7.8858,4.96843-12.31891,4.96843-4.65735,0-9.30731-1.82008-12.79291-5.43822-26.79297-27.81822-57.54352-51.83377-91.39764-71.37944-65.08563-37.57718-136.26074-55.43485-206.51166-55.43916-143.37033-.0088-282.97191,74.34154-359.67113,207.1886-54.97456,95.21869-69.85289,206.18613-41.89678,312.45587,2.50122,9.48535-3.16978,19.19781-12.65556,21.69495-1.51435.39832-3.03611.58887-4.53162.58887-7.87441,0-15.06649-5.27368-17.16328-13.24445-30.35533-115.388-14.20089-235.87256,45.48689-339.25479C205.80048,143.7865,357.38837,63.06673,513.03064,63.06167m.01447-3v3l-.00641-3c-78.26926.00256-155.6796,20.32766-223.87036,58.77811-34.52,19.46467-66.30745,43.36433-94.47922,71.03512-29.06378,28.54677-54.21323,61.0571-74.75001,96.62776-60.08622,104.07245-76.34811,225.35922-45.79011,341.51804,2.39789,9.11511,10.64867,15.4812,20.06455,15.4812,1.77889,0,3.56033-.23132,5.29478-.68756,5.36378-1.41199,9.85634-4.82709,12.65089-9.61621,2.79556-4.79089,3.55644-10.38257,2.14244-15.74487-27.75378-105.50046-12.98222-215.66235,41.59399-310.19104,18.65657-32.31409,41.49945-61.84576,67.89423-87.77454,25.58534-25.13356,54.45401-46.84167,85.80423-64.52135,61.93912-34.92989,132.2561-53.39277,203.34924-53.39277,35.31244.00222,70.44684,4.55444,104.45251,13.53044,35.07446,9.25811,68.91589,23.223,100.58447,41.50689,33.61041,19.405,64.13879,43.24655,90.73688,70.86244,3.94934,4.09956,9.25989,6.35712,14.95367,6.35712,5.39709,0,10.51111-2.06256,14.3999-5.80756,1.40686-1.353,2.61389-2.89345,3.586-4.577,4.59607-7.96089,3.34766-18.14978-3.03601-24.77756-29.30157-30.41968-62.90625-56.66756-99.88055-78.01479-34.86743-20.13066-72.12201-35.50555-110.72858-45.69744-37.43732-9.88322-76.11755-14.89444-114.96655-14.89444h0Z"/>
      </g>
    </g>
    <g>
      <path d="m124.32764,737.37207c-5.87109,0-11.67627-1.56055-16.78809-4.51172-16.06299-9.27441-21.58643-29.8877-12.3125-45.9502,5.99121-10.37695,17.16504-16.82422,29.16113-16.82422,5.87061,0,11.67627,1.56055,16.78906,4.5127,7.78125,4.49219,13.34717,11.74512,15.67236,20.4248,2.32568,8.67871,1.13232,17.74316-3.36035,25.52441-5.99121,10.37695-17.16504,16.82422-29.16016,16.82422h-.00146Z" style="fill: #fff;"/>
      <path d="m124.38811,671.58594c5.45176,0,10.97863,1.38934,16.0393,4.3111,15.37077,8.87433,20.63748,28.52985,11.76317,43.90063-5.95297,10.31079-16.75536,16.07465-27.86284,16.07465-5.45167,0-10.97782-1.38916-16.03825-4.31079-15.3715-8.87476-20.6382-28.53033-11.76347-43.90179,5.95268-10.31036,16.75442-16.07379,27.86209-16.07379m0-3c-12.53008,0-24.20173,6.73389-30.46017,17.57379-9.68766,16.77954-3.91801,38.31219,12.86155,47.99988,5.34005,3.08307,11.40469,4.71271,17.53825,4.71271,12.53023,0,24.20216-6.73419,30.46091-17.57465,9.68742-16.77911,3.91789-38.31128-12.86124-47.99872-5.34042-3.08331-11.40543-4.71301-17.53931-4.71301h0Z"/>
    </g>
    <g>
      <path d="m511.80371,964.43848c-28.94238,0-58.04785-2.82812-86.50684-8.40527-5.04834-.98828-9.40918-3.88477-12.27881-8.15332s-3.90527-9.40039-2.91553-14.44922c1.76025-9.01465,9.7002-15.55762,18.87939-15.55762,1.24219,0,2.49512.12207,3.72412.36328,26.01855,5.09766,52.62988,7.68164,79.09473,7.68164,15.47363,0,31.13477-.8877,46.54883-2.63867.72852-.08301,1.46777-.125,2.19727-.125,9.78809,0,18.00488,7.3457,19.11328,17.08594.46875,4.12793-.37793,8.20605-2.44922,11.79297-3.0459,5.27441-8.47168,8.83301-14.51367,9.51855-16.85059,1.91602-33.97363,2.88672-50.89355,2.88672Z" style="fill: #fff;"/>
      <path d="m428.98203,919.37311c1.13324,0,2.28165.10876,3.43549.33484,26.21695,5.13654,52.77829,7.71063,79.38474,7.71063,15.57666,0,31.16803-.88214,46.71667-2.6488.68164-.07758,1.35913-.11542,2.02917-.11548,8.90961-.00018,16.59015,6.6925,17.62152,15.75629.44604,3.9223-.42377,7.69537-2.25793,10.87225-2.72015,4.71149-7.56104,8.11768-13.38287,8.77844-16.88116,1.91882-33.81299,2.87701-50.72577,2.87701-28.89627,0-57.74164-2.79639-86.21744-8.37665-9.62546-1.88574-15.89789-11.21515-14.01093-20.84277,1.65411-8.47229,9.08707-14.34576,17.40735-14.34576m0-2.99994c-9.89532,0-18.45447,7.05316-20.35178,16.77081-1.06628,5.44049.04974,10.97186,3.14301,15.57318,3.0932,4.60126,7.79367,7.72235,13.23557,8.78851,28.55334,5.59546,57.75519,8.43262,86.79422,8.43262,16.9765,0,34.1571-.97443,51.06458-2.89618,6.51233-.73914,12.36005-4.57446,15.64215-10.25928,2.23328-3.86823,3.14642-8.26373,2.64062-12.71124-1.19476-10.49963-10.05164-18.41724-20.60187-18.41724-.78632,0-1.58331.04529-2.36871.13464-15.35663,1.74487-30.96039,2.62958-46.37756,2.62958-26.36856,0-52.88339-2.57538-78.80792-7.65466-1.32355-.25928-2.67346-.39075-4.0123-.39075h0Z"/>
    </g>
    <g>
      <path d="m681.02832,762.73828c-6.2168,0-12.36328-1.65234-17.77637-4.77734-8.23828-4.75586-14.13184-12.43555-16.59375-21.625-2.46191-9.18848-1.19824-18.78711,3.55859-27.02539,6.34277-10.9873,18.17383-17.8125,30.87402-17.8125,6.21582,0,12.36328,1.65137,17.77637,4.77734,8.23828,4.75586,14.13184,12.43555,16.59375,21.625,2.46191,9.18848,1.19824,18.78711-3.55859,27.02539-6.34277,10.9873-18.17285,17.8125-30.87207,17.8125h-.00195Z" style="fill: #fff;"/>
      <path d="m681.09131,692.99768c5.78699,0,11.65363,1.47479,17.02551,4.57623,16.31683,9.42053,21.90741,30.28467,12.48688,46.6015-6.31909,10.94495-17.78522,17.06305-29.57599,17.06305-5.78699,0-11.65363-1.47479-17.02551-4.57623-16.31683-9.42053-21.90741-30.28473-12.48688-46.6015,6.31909-10.94495,17.78522-17.06305,29.57599-17.06305m0-3c-13.23499,0-25.56335,7.11292-32.17407,18.56305-4.95685,8.58551-6.27362,18.5874-3.70776,28.16327,2.56586,9.57593,8.70721,17.57947,17.29272,22.53632,5.64081,3.25671,12.04681,4.97815,18.52551,4.97815,13.23499,0,25.56335-7.11298,32.17407-18.56305,10.23254-17.72327,4.13837-40.46704-13.58496-50.69958-5.64081-3.25671-12.04681-4.97815-18.52551-4.97815h0Z"/>
    </g>
    <g>
      <path d="m510.36279,548.38184c-6.21631,0-12.36279-1.65234-17.77539-4.77734-17.00684-9.81934-22.85449-31.64355-13.03564-48.65039,6.34375-10.9873,18.17432-17.81299,30.875-17.81299,6.21582,0,12.3623,1.65186,17.77539,4.77734,8.23828,4.75635,14.13184,12.43604,16.59375,21.625s1.19922,18.78662-3.55762,27.0249c-6.34375,10.98828-18.17383,17.81348-30.87354,17.81348h-.00195Z" style="fill: #fff;"/>
      <path d="m510.42679,478.64108c5.78702,0,11.65366,1.47476,17.02554,4.5762,16.31683,9.42053,21.90735,30.28473,12.48682,46.6015-6.31903,10.94495-17.78522,17.06305-29.57596,17.06305-5.78702,0-11.65366-1.47479-17.02554-4.57623-16.31683-9.42047-21.90738-30.28467-12.48685-46.6015,6.31906-10.94492,17.78522-17.06302,29.57599-17.06302m0-3c-13.23499,0-25.56335,7.11295-32.17407,18.56302-4.95685,8.58554-6.27365,18.58746-3.70779,28.16333s8.70721,17.57941,17.29272,22.53625c5.64081,3.25671,12.04681,4.97815,18.52554,4.97815,13.23502,0,25.56332-7.11292,32.17404-18.56305,4.95685-8.58551,6.27362-18.5874,3.70776-28.1633-2.5658-9.57587-8.70715-17.57941-17.29266-22.53629-5.64087-3.25671-12.04688-4.97812-18.52554-4.97812h0Z"/>
    </g>
    <g>
      <path d="m884.48438,341.87109c-6.2168-.00049-12.36328-1.65234-17.77637-4.77734-8.23828-4.75635-14.13184-12.43652-16.59375-21.625-2.46191-9.18896-1.19824-18.78711,3.55859-27.02539,6.34277-10.9873,18.17383-17.81299,30.87402-17.81299,6.21582,0,12.36328,1.65186,17.77637,4.77734,8.23828,4.75635,14.13184,12.43652,16.59375,21.625,2.46191,9.18896,1.19824,18.78711-3.55859,27.02539-6.34277,10.9873-18.17285,17.81299-30.87207,17.81299h-.00195Z" style="fill: #fff;"/>
      <path d="m884.54749,272.13037c5.78705,0,11.65363,1.47476,17.02551,4.57623,16.31683,9.4205,21.90741,30.2847,12.48688,46.6015-6.31909,10.94495-17.78522,17.06302-29.57599,17.06302-5.78705,0-11.65363-1.47473-17.02551-4.5762-16.31683-9.42053-21.90741-30.2847-12.48688-46.6015,6.31909-10.94495,17.78528-17.06305,29.57599-17.06305m0-3c-13.23501,0-25.56335,7.11295-32.17407,18.56305-4.95685,8.58551-6.27362,18.58743-3.70776,28.1633,2.56586,9.5759,8.70721,17.57944,17.29272,22.53629,5.64081,3.25671,12.04681,4.97812,18.52551,4.97812,13.23492,0,25.56335-7.11292,32.17407-18.56302,4.95685-8.58551,6.27362-18.58743,3.70776-28.16333-2.56586-9.57587-8.70721-17.57941-17.29272-22.53625-5.64081-3.25671-12.04681-4.97815-18.52551-4.97815h0Z"/>
    </g>
  </g>
</svg>